<?xml version="1.0" encoding="UTF-8"?>
<svg xmlns="http://www.w3.org/2000/svg" style="display:none">
  <symbol id="file" viewBox="0 0 24 24">
    <path fill="currentColor" d="M6 2h7l5 5v15H6zM13 3v5h5"/>
  </symbol>
  <symbol id="export" viewBox="0 0 24 24">
    <path fill="currentColor" d="M12 3l4 4h-3v6h-2V7H8zM5 13h14v8H5z"/>
  </symbol>
  <symbol id="code" viewBox="0 0 24 24">
    <path fill="currentColor" d="M8 16l-4-4 4-4 1.4 1.4L6.8 12l2.6 2.6zM16 8l4 4-4 4-1.4-1.4 2.6-2.6-2.6-2.6z"/>
  </symbol>
  <symbol id="undo" viewBox="0 0 24 24">
    <path fill="currentColor" d="M12 5V2L7 7l5 5V9c3.31 0 6 2.69 6 6 0 .34-.03.67-.07 1h2.02c.03-.33.05-.66.05-1 0-4.97-4.03-9-9-9z"/>
  </symbol>
  <symbol id="bold" viewBox="0 0 24 24">
    <path fill="currentColor" d="M7 4h4v16H7zM11 4h2a4 4 0 010 8h-2zM11 12h2a4 4 0 010 8h-2z"/>
  </symbol>
  <symbol id="italic" viewBox="0 0 24 24">
    <path fill="currentColor" d="M10 4h8v2h-3.6l-3.8 12H16v2H8v-2h3.6l3.8-12H10z"/>
  </symbol>
  <symbol id="strike" viewBox="0 0 24 24">
    <path fill="currentColor" d="M4 11h16v2H4zM7 16c0 1.7 1.8 3 5 3 2.7 0 4.5-1 5-2.5l-2.1-.8c-.4.9-1.5 1.3-2.9 1.3-1.9 0-3.1-.6-3.1-1.6 0-1.1.9-1.6 3.2-2.2L10.9 12C8.6 12.5 7 13.6 7 16zM17 8c0-1.8-1.9-3-4.9-3-2.5 0-4.1.8-4.7 2.2l2 .9c.3-.7 1.2-1.1 2.6-1.1 1.8 0 3 .6 3 1.6 0 .9-.7 1.4-2.6 1.9l1.4.5C16 10.4 17 9.5 17 8z"/>
  </symbol>
  <symbol id="h1" viewBox="0 0 24 24"><path fill="currentColor" d="M4 6h2v5h6V6h2v12h-2v-5H6v5H4zM18 6h2v12h-2z"/></symbol>
  <symbol id="h2" viewBox="0 0 24 24"><path fill="currentColor" d="M4 6h2v5h6V6h2v12h-2v-5H6v5H4zM17 14h3v4h-6v-1c0-2.2 3.8-2.4 3.8-3.9 0-.6-.6-1-1.6-1-1 0-1.7.4-2.1 1l-1.8-1c.7-1.2 2.2-2 4-2 2.4 0 3.9 1.2 3.9 3 0 2.7-3.8 2.6-3.8 3.8z"/></symbol>
  <symbol id="h3" viewBox="0 0 24 24"><path fill="currentColor" d="M4 6h2v5h6V6h2v12h-2v-5H6v5H4zM18.5 12.5c.9-.5 1.5-1.2 1.5-2.3 0-1.8-1.6-3.2-4-3.2-1.8 0-3.3.7-4.1 1.9l1.8 1.1c.4-.6 1.1-.9 2-.9 1.2 0 2 .6 2 1.4s-.8 1.4-2 1.4h-1.3v1.9H16c1.3 0 2.2.6 2.2 1.6S17.3 16 16.1 16c-.9 0-1.7-.3-2.2-.9l-1.6 1.2c.8 1 2.1 1.7 3.8 1.7 2.5 0 4.3-1.4 4.3-3.4 0-1.1-.7-2.1-1.9-2.7z"/></symbol>
  <symbol id="h4" viewBox="0 0 24 24"><path fill="currentColor" d="M4 6h2v5h6V6h2v12h-2v-5H6v5H4zM20 16h-1v2h-2v-2h-4v-2l4-6h2v6h1zM17 14v-3.4L15.3 14z"/></symbol>
  <symbol id="table" viewBox="0 0 24 24">
    <path fill="currentColor" d="M3 5h18v14H3zM5 7v2h14V7zm0 4v6h6v-6zm8 0v6h6v-6z"/>
  </symbol>
  <symbol id="image" viewBox="0 0 24 24">
    <path fill="currentColor" d="M4 5h16v14H4zM7 8a2 2 0 114 0 2 2 0 01-4 0zm12 8l-6-6-6 6z"/>
  </symbol>
  <symbol id="link" viewBox="0 0 24 24">
    <path fill="currentColor" d="M3.9 12a5 5 0 015-5h3v2h-3a3 3 0 100 6h3v2h-3a5 5 0 01-5-5zm7-1h3a3 3 0 110 6h-3v-2h3a1 1 0 000-2h-3z"/>
  </symbol>
  <symbol id="chart" viewBox="0 0 24 24">
    <path fill="currentColor" d="M3 3h18v2H3zM5 7h3v12H5zM10 11h3v8h-3zM15 5h3v14h-3z"/>
  </symbol>
  <symbol id="search" viewBox="0 0 24 24">
    <path fill="currentColor" d="M15.5 14h-.79l-.28-.27A6.471 6.471 0 0016 9.5 6.5 6.5 0 109.5 16a6.471 6.471 0 004.23-1.57l.27.28v.79l5 5L20.49 19l-5-5zM9.5 14C7.01 14 5 11.99 5 9.5S7.01 5 9.5 5 14 7.01 14 9.5 11.99 14 9.5 14z"/>
  </symbol>
  <symbol id="check" viewBox="0 0 24 24">
    <path fill="currentColor" d="M9 16.2l-3.5-3.5 1.4-1.4L9 13.4l7.6-7.6 1.4 1.4z"/>
  </symbol>
  <symbol id="frontmatter" viewBox="0 0 24 24">
    <path fill="currentColor" d="M4 3h16v2H4zm0 4h8v2H4zm0 4h16v2H4zm0 4h8v2H4z"/>
  </symbol>
  <symbol id="check-circle" viewBox="0 0 24 24">
    <path fill="currentColor" d="M12 2a10 10 0 100 20 10 10 0 000-20zm-2 13.5l-3.5-3.5 1.4-1.4 2.1 2.1 6.5-6.5 1.4 1.4z"/>
  </symbol>
</svg>
